<?xml version="1.0" encoding="UTF-8" standalone="no"?>
<!-- Created with Inkscape (http://www.inkscape.org/) -->

<svg
   xmlns:dc="http://purl.org/dc/elements/1.1/"
   xmlns:cc="http://creativecommons.org/ns#"
   xmlns:rdf="http://www.w3.org/1999/02/22-rdf-syntax-ns#"
   xmlns:svg="http://www.w3.org/2000/svg"
   xmlns="http://www.w3.org/2000/svg"
   xmlns:sodipodi="http://sodipodi.sourceforge.net/DTD/sodipodi-0.dtd"
   xmlns:inkscape="http://www.inkscape.org/namespaces/inkscape"
   width="169.59308"
   height="32.000072"
   viewBox="0 0 44.871502 8.4666861"
   version="1.1"
   id="svg8"
   inkscape:version="0.92.1 r15371"
   sodipodi:docname="brand.svg">
  <defs
     id="defs2" />
  <sodipodi:namedview
     id="base"
     pagecolor="#ffffff"
     bordercolor="#666666"
     borderopacity="1.0"
     inkscape:pageopacity="0.0"
     inkscape:pageshadow="2"
     inkscape:zoom="5.6568542"
     inkscape:cx="60.988962"
     inkscape:cy="9.5289807"
     inkscape:document-units="mm"
     inkscape:current-layer="text4487"
     showgrid="false"
     units="px"
     fit-margin-top="0"
     fit-margin-left="0"
     fit-margin-right="0"
     fit-margin-bottom="0"
     inkscape:window-width="1600"
     inkscape:window-height="821"
     inkscape:window-x="-9"
     inkscape:window-y="-9"
     inkscape:window-maximized="1"
     inkscape:snap-grids="false" />
  <metadata
     id="metadata5">
    <rdf:RDF>
      <cc:Work
         rdf:about="">
        <dc:format>image/svg+xml</dc:format>
        <dc:type
           rdf:resource="http://purl.org/dc/dcmitype/StillImage" />
        <dc:title />
      </cc:Work>
    </rdf:RDF>
  </metadata>
  <g
     inkscape:label="Layer 1"
     inkscape:groupmode="layer"
     id="layer1"
     transform="translate(0.09222621,-287.40944)">
    <g
       aria-label="AmpTweet"
       style="font-style:normal;font-weight:normal;font-size:28.37990189px;line-height:1.25;font-family:sans-serif;letter-spacing:-0.19865924px;word-spacing:0px;fill:#000000;fill-opacity:1;stroke:none;stroke-width:0.70949733px;stroke-linecap:butt;stroke-linejoin:miter;stroke-opacity:1"
       id="text4487">
      <path
         d="m 3.3260867,287.47457 q 0.23286,0 0.3818907,0.0931 0.1583447,0.0836 0.2608033,0.23287 0.1024583,0.13973 0.167659,0.32601 0.065201,0.18629 0.1117731,0.38189 0.3725761,1.50893 0.6147504,2.48694 0.2421744,0.978 0.3818904,1.58344 0.1397162,0.59614 0.1956026,0.88487 0.055886,0.28875 0.055886,0.40053 0,0.13039 -0.065201,0.17698 -0.055886,0.0466 -0.1862883,0.0466 H 4.7698192 q -0.4005194,0 -0.642694,-0.0931 -0.23286,-0.1025 -0.3632615,-0.28877 Q 3.6427764,293.51962 3.58689,293.25883 3.531003,292.98871 3.493746,292.6534 H 1.87304 l -0.3073752,1.28539 q -0.046572,0.14902 -0.2142314,0.14902 H 0.85777009 q -0.14903043,0 -0.3073753,-0.0279 -0.15834483,-0.0373 -0.28874647,-0.11177 -0.12108723,-0.0747 -0.20491686,-0.1863 -0.08382963,-0.12108 -0.08382963,-0.28876 0,-0.20489 0.13040164,-0.67063 0.13040166,-0.46572 0.32600411,-1.05252 0.20491685,-0.59613 0.44709132,-1.23881 0.2514889,-0.65202 0.4843491,-1.22953 0.2328598,-0.57747 0.419148,-1.01524 0.1956025,-0.43778 0.298061,-0.61476 0.074514,-0.1304 0.1304015,-0.14903 0.065201,-0.0279 0.2328601,-0.0279 z m -1.1177282,3.82822 h 1.0711563 l -0.391205,-2.45901 z"
         style="font-style:normal;font-variant:normal;font-weight:normal;font-stretch:normal;font-size:9.45996284px;font-family:'Poetsen One';-inkscape-font-specification:'Poetsen One';letter-spacing:-0.19865924px;fill:#9f9f9f;stroke:none;stroke-width:0.13025609;stroke-linecap:butt;stroke-linejoin:round;stroke-miterlimit:4;stroke-dasharray:none;stroke-opacity:0.953125;paint-order:stroke markers fill;fill-opacity:1"
         id="path4571"
         inkscape:connector-curvature="0" />
      <path
         d="m 7.4816198,292.4112 q -0.027945,0.42848 -0.065201,0.81966 -0.037257,0.3819 -0.055886,0.67064 -0.00931,0.11179 -0.046572,0.14905 -0.037257,0.0373 -0.1583447,0.0373 H 6.8202972 q -0.2887465,0 -0.4750345,-0.0558 -0.1769736,-0.0652 -0.2887465,-0.17699 -0.1024584,-0.11176 -0.1490306,-0.27011 -0.037256,-0.16766 -0.037256,-0.3819 0,-0.1397 0.00931,-0.39121 0.01863,-0.26079 0.055886,-0.70788 0.037258,-0.45641 0.083832,-1.14567 0.055886,-0.69861 0.1304016,-1.72317 0.00931,-0.2049 0.046572,-0.24217 0.027945,-0.0279 0.1490305,-0.0279 h 0.3632616 q 0.279432,0 0.4564057,0.0652 0.1769737,0.0652 0.2887466,0.16763 0.1117728,0.10246 0.1583447,0.24219 0.046572,0.13972 0.055886,0.28873 0.2701176,-0.50296 0.6147508,-0.67993 0.3446326,-0.177 0.8103528,-0.177 0.2514889,0 0.484349,0.0468 0.2328601,0.0464 0.4191478,0.15833 0.1862873,0.11179 0.3166903,0.29807 0.130402,0.17699 0.18629,0.4564 0.288743,-0.54023 0.633378,-0.74514 0.344634,-0.21426 0.866239,-0.21426 0.288747,0 0.54955,0.0652 0.270118,0.0558 0.465719,0.20492 0.195604,0.14901 0.307377,0.40983 0.121087,0.25147 0.121087,0.63337 0,0.28874 -0.02793,0.70789 -0.02793,0.41915 -0.06522,0.91281 -0.03724,0.48434 -0.08384,1.00595 -0.04657,0.51231 -0.07453,0.98733 -0.0095,0.10246 -0.01862,0.15835 -0.0095,0.0558 -0.03724,0.0836 -0.01862,0.0279 -0.06522,0.0373 -0.04658,0.009 -0.130401,0.009 h -0.298055 q -0.298062,0 -0.48435,-0.0558 -0.186287,-0.0558 -0.288746,-0.15837 -0.102457,-0.10245 -0.149032,-0.25148 -0.03724,-0.15836 -0.03724,-0.35394 0,-0.1211 0.0095,-0.34464 0.01862,-0.22355 0.03724,-0.48435 0.02793,-0.26082 0.04657,-0.54025 0.02793,-0.27941 0.04657,-0.51227 0.02793,-0.24217 0.03724,-0.41915 0.01862,-0.17698 0.01862,-0.23286 0,-0.24217 -0.102457,-0.42848 -0.09315,-0.18628 -0.372577,-0.18628 -0.242174,0 -0.419147,0.15836 -0.176974,0.15832 -0.298061,0.43777 -0.121085,0.27943 -0.195601,0.66133 -0.07453,0.38187 -0.102459,0.82897 -0.01862,0.28874 -0.04657,0.66132 -0.02793,0.37258 -0.06522,0.93146 -0.0095,0.10246 -0.01862,0.15833 -0.0095,0.0558 -0.03724,0.0836 -0.01862,0.0279 -0.06522,0.0373 -0.04655,0.009 -0.1304,0.009 H 9.7263909 q -0.298061,0 -0.484349,-0.0558 -0.1862879,-0.0558 -0.2887465,-0.15835 -0.1024582,-0.10246 -0.1490303,-0.25148 -0.037259,-0.15835 -0.037259,-0.35394 0,-0.1863 0.027945,-0.54024 0.037259,-0.36328 0.065201,-0.74517 0.037259,-0.39119 0.065201,-0.73581 0.037257,-0.35395 0.037257,-0.5123 0,-0.24218 -0.1024584,-0.42848 -0.093144,-0.18629 -0.372576,-0.18629 -0.251489,0 -0.4284627,0.18629 -0.1769734,0.1863 -0.2980607,0.50299 -0.1117728,0.30737 -0.1862879,0.72653 -0.065201,0.41911 -0.093145,0.87555 z"
         style="font-style:normal;font-variant:normal;font-weight:normal;font-stretch:normal;font-size:9.45996284px;font-family:'Poetsen One';-inkscape-font-specification:'Poetsen One';letter-spacing:-0.19865924px;fill:#9f9f9f;stroke:none;stroke-width:0.13025609;stroke-linecap:butt;stroke-linejoin:round;stroke-miterlimit:4;stroke-dasharray:none;stroke-opacity:0.953125;paint-order:stroke markers fill;fill-opacity:1"
         id="path4573"
         inkscape:connector-curvature="0" />
      <path
         d="m 17.302203,288.87171 q 0.875555,0 1.31333,0.54024 0.447091,0.54024 0.447091,1.70454 0,0.72651 -0.167657,1.29471 -0.167661,0.56818 -0.465723,0.96871 -0.298061,0.39119 -0.698579,0.59611 -0.40052,0.20492 -0.866239,0.20492 -0.493664,0 -0.773096,-0.21423 -0.279432,-0.21424 -0.437778,-0.60544 -0.02793,0.33533 -0.04655,0.51229 -0.01862,0.17699 -0.02793,0.27945 -0.0095,0.11176 -0.01862,0.19559 0,0.0836 -0.01862,0.22355 -0.0095,0.13971 -0.02793,0.38187 -0.01862,0.24218 -0.05591,0.67066 -0.0095,0.11177 -0.04659,0.14902 -0.03724,0.0373 -0.158344,0.0373 H 14.91774 q -0.288747,0 -0.475034,-0.0652 -0.176974,-0.0558 -0.288747,-0.16767 -0.10246,-0.11177 -0.149031,-0.27942 -0.03724,-0.15835 -0.03724,-0.37258 0,-0.0931 0.02793,-0.50299 0.02793,-0.40981 0.06522,-0.97801 0.04657,-0.57748 0.09315,-1.2388 0.05589,-0.66133 0.102458,-1.25746 0.04656,-0.60544 0.07453,-1.07113 0.03724,-0.46575 0.05589,-0.64271 0.0095,-0.20491 0.04657,-0.24216 0.02793,-0.0279 0.149029,-0.0279 h 0.363263 q 0.50298,0 0.726524,0.21422 0.23286,0.20492 0.23286,0.49368 0.214231,-0.42846 0.549549,-0.61475 0.344632,-0.18631 0.84761,-0.18631 z m -0.679953,1.23884 q -0.475034,0 -0.69858,0.40984 -0.223544,0.40983 -0.223544,1.11771 0,0.24217 0.02793,0.47504 0.03724,0.23286 0.121087,0.41915 0.08384,0.18628 0.223546,0.29805 0.149031,0.11179 0.372575,0.11179 0.400521,0 0.670637,-0.39121 0.270118,-0.39121 0.270118,-1.22951 0,-0.23285 -0.03724,-0.44708 -0.02793,-0.22355 -0.111775,-0.39122 -0.08384,-0.16765 -0.232857,-0.27011 -0.149031,-0.10245 -0.381893,-0.10245 z"
         style="font-style:normal;font-variant:normal;font-weight:normal;font-stretch:normal;font-size:9.45996284px;font-family:'Poetsen One';-inkscape-font-specification:'Poetsen One';letter-spacing:-0.19865924px;fill:#9f9f9f;stroke:none;stroke-width:0.13025609;stroke-linecap:butt;stroke-linejoin:round;stroke-miterlimit:4;stroke-dasharray:none;stroke-opacity:0.953125;paint-order:stroke markers fill;fill-opacity:1"
         id="path4575"
         inkscape:connector-curvature="0" />
      <path
         d="m 22.688983,288.77858 -0.353947,5.16951 q -0.0095,0.1397 -0.10246,0.1397 h -0.512291 q -0.521606,0 -0.745151,-0.20492 -0.223547,-0.20491 -0.223547,-0.5868 0,-0.13971 0.0095,-0.41915 0.01862,-0.27943 0.04657,-0.65201 0.02793,-0.38191 0.0559,-0.81966 0.03724,-0.44709 0.07453,-0.89418 0.03724,-0.45643 0.06522,-0.90351 0.03724,-0.44708 0.06522,-0.82898 h -1.490305 q -0.102457,0 -0.102457,-0.13041 l 0.02793,-0.52159 q 0.0095,-0.12109 0.03724,-0.23287 0.03724,-0.12109 0.111774,-0.21423 0.07453,-0.0931 0.186288,-0.14902 0.121089,-0.0558 0.288748,-0.0558 h 4.163536 q 0.05589,0 0.102459,0.0279 0.04655,0.0279 0.04655,0.10246 l -0.03724,0.54956 q -0.01862,0.27942 -0.158345,0.45639 -0.130402,0.16766 -0.54955,0.16766 z"
         style="letter-spacing:-0.26251411px;fill:#9f9f9f;stroke:none;stroke-width:0.13025609;stroke-linecap:butt;stroke-linejoin:round;stroke-miterlimit:4;stroke-dasharray:none;stroke-opacity:0.953125;paint-order:stroke markers fill;fill-opacity:1"
         id="path4577"
         inkscape:connector-curvature="0" />
      <path
         d="m 29.387642,293.09115 q 0.121084,-0.67995 0.204914,-1.18294 0.09315,-0.51227 0.149031,-0.88485 0.06522,-0.37258 0.102459,-0.64271 0.04656,-0.2701 0.07453,-0.47503 0.03724,-0.21422 0.05591,-0.37257 0.02793,-0.16766 0.05589,-0.34463 0.01862,-0.10247 0.09315,-0.15834 0.08384,-0.0558 0.307378,-0.0558 0.121087,0 0.335319,0.0186 0.223545,0.009 0.437775,0.0652 0.214233,0.0558 0.363263,0.17697 0.158345,0.11178 0.158345,0.3167 0,0.14901 -0.08384,0.44709 -0.08384,0.28874 -0.214229,0.67063 -0.130404,0.38188 -0.298063,0.81967 -0.167658,0.42844 -0.344632,0.85692 -0.167659,0.41915 -0.326004,0.80104 -0.158345,0.38189 -0.270117,0.66133 -0.07453,0.16765 -0.149032,0.22355 -0.06522,0.0558 -0.242174,0.0558 h -0.549549 q -0.260804,0 -0.428464,-0.0652 -0.167658,-0.0652 -0.270116,-0.17698 -0.102458,-0.11178 -0.158345,-0.25149 -0.05589,-0.14905 -0.08384,-0.31669 -0.09315,-0.47505 -0.195601,-1.27609 -0.10246,-0.80103 -0.18629,-1.89082 -0.04655,0.20492 -0.111771,0.54955 -0.05589,0.34463 -0.130401,0.74516 -0.06522,0.4005 -0.139718,0.81966 -0.07453,0.41916 -0.139714,0.78241 -0.06522,0.35395 -0.12109,0.61476 -0.05588,0.25148 -0.09315,0.32601 -0.04656,0.0931 -0.121086,0.12108 -0.06522,0.0184 -0.195602,0.0184 h -0.652017 q -0.242176,0 -0.41915,-0.0652 -0.167659,-0.0747 -0.29806,-0.1863 -0.121087,-0.11177 -0.204918,-0.25148 -0.07453,-0.14905 -0.11177,-0.30738 -0.512292,-1.99328 -0.773097,-3.00858 -0.251487,-1.01525 -0.251487,-1.08978 0,-0.0836 0.08384,-0.14901 0.08384,-0.0652 0.214231,-0.0652 0.400519,0 0.689266,0.0373 0.288745,0.0279 0.475034,0.11177 0.195602,0.0836 0.298061,0.23285 0.102459,0.14902 0.130403,0.39119 0.0095,0.13042 0.03724,0.53092 0.02793,0.40053 0.0559,0.91283 0.03724,0.50298 0.06522,1.02458 0.03724,0.52161 0.06522,0.88486 0.111773,-0.57748 0.176973,-0.92212 0.07453,-0.34465 0.12109,-0.57749 0.04654,-0.23286 0.07453,-0.40983 0.03724,-0.17699 0.08384,-0.41915 0.04655,-0.24217 0.102457,-0.60545 0.06522,-0.36325 0.176975,-0.96869 0.03724,-0.22355 0.493662,-0.22355 0.288745,0 0.540235,0.0185 0.25149,0.0186 0.447092,0.0931 0.195603,0.0652 0.335318,0.20491 0.139716,0.13041 0.195602,0.36328 0.01862,0.0652 0.02793,0.1304 0.01862,0.0652 0.03724,0.18628 0.01862,0.12111 0.03724,0.33533 0.02793,0.21424 0.05589,0.57749 0.03724,0.36327 0.08384,0.9035 0.04654,0.54023 0.121087,1.31332 z"
         style="font-style:normal;font-variant:normal;font-weight:normal;font-stretch:normal;font-size:9.45996284px;font-family:'Poetsen One';-inkscape-font-specification:'Poetsen One';letter-spacing:-0.19865924px;fill:#9f9f9f;stroke:none;stroke-width:0.13025609;stroke-linecap:butt;stroke-linejoin:round;stroke-miterlimit:4;stroke-dasharray:none;stroke-opacity:0.953125;paint-order:stroke markers fill;fill-opacity:1"
         id="path4579"
         inkscape:connector-curvature="0" />
      <path
         d="m 34.119211,294.18094 q -0.409834,0 -0.819668,-0.10246 -0.40052,-0.10246 -0.726524,-0.35394 -0.31669,-0.25151 -0.521605,-0.67063 -0.204916,-0.41916 -0.204916,-1.05255 0,-0.23285 0.03724,-0.55886 0.03724,-0.32601 0.139716,-0.67063 0.111772,-0.34465 0.298061,-0.67994 0.195602,-0.34465 0.502977,-0.61477 0.307375,-0.27012 0.745151,-0.43776 0.437778,-0.16769 1.043215,-0.16769 0.484347,0 0.819668,0.11178 0.335317,0.11178 0.540231,0.30738 0.204921,0.18629 0.298063,0.43777 0.09315,0.25152 0.09315,0.54022 0,0.42848 -0.176972,0.72655 -0.167659,0.29807 -0.447091,0.50299 -0.27012,0.1956 -0.605438,0.30736 -0.335318,0.11176 -0.661322,0.17696 -0.326004,0.0558 -0.605437,0.0747 -0.270118,0.009 -0.419148,0.009 0,0.17697 0.04656,0.35395 0.0559,0.16766 0.158346,0.29805 0.102458,0.13042 0.270117,0.21424 0.167659,0.0836 0.409835,0.0836 0.242174,0 0.372575,-0.0747 0.139717,-0.0836 0.223547,-0.17699 0.08384,-0.10246 0.139715,-0.17697 0.06522,-0.0836 0.16766,-0.0836 0.04654,0 0.158345,0.0279 0.121086,0.0184 0.242174,0.0931 0.121086,0.0747 0.214231,0.20492 0.09315,0.13039 0.09315,0.33531 0,0.2701 -0.167661,0.46571 -0.167659,0.19562 -0.437776,0.3167 -0.260801,0.12108 -0.586808,0.17698 -0.326004,0.0558 -0.633378,0.0558 z m 0.176972,-4.07039 q -0.204916,0 -0.353947,0.12107 -0.139715,0.11177 -0.242173,0.28877 -0.09315,0.17695 -0.149031,0.39118 -0.04657,0.21425 -0.07453,0.40984 0.577495,-0.009 0.931441,-0.19559 0.363262,-0.18629 0.363262,-0.53093 0,-0.18628 -0.121086,-0.33534 -0.111774,-0.149 -0.353948,-0.149 z"
         style="font-style:normal;font-variant:normal;font-weight:normal;font-stretch:normal;font-size:9.45996284px;font-family:'Poetsen One';-inkscape-font-specification:'Poetsen One';letter-spacing:-0.19865924px;fill:#9f9f9f;stroke:none;stroke-width:0.13025609;stroke-linecap:butt;stroke-linejoin:round;stroke-miterlimit:4;stroke-dasharray:none;stroke-opacity:0.953125;paint-order:stroke markers fill;fill-opacity:1"
         id="path4581"
         inkscape:connector-curvature="0" />
      <path
         d="m 38.871886,294.18094 q -0.409836,0 -0.819666,-0.10246 -0.400523,-0.10246 -0.726526,-0.35394 -0.31669,-0.25151 -0.521606,-0.67063 -0.204917,-0.41916 -0.204917,-1.05255 0,-0.23285 0.03724,-0.55886 0.03724,-0.32601 0.139716,-0.67063 0.111774,-0.34465 0.29806,-0.67994 0.195603,-0.34465 0.502977,-0.61477 0.307378,-0.27012 0.745154,-0.43776 0.437774,-0.16769 1.043212,-0.16769 0.48435,0 0.819668,0.11178 0.335318,0.11178 0.540235,0.30738 0.204918,0.18629 0.298061,0.43777 0.09315,0.25152 0.09315,0.54022 0,0.42848 -0.176974,0.72655 -0.167661,0.29807 -0.44709,0.50299 -0.270119,0.1956 -0.605439,0.30736 -0.335318,0.11176 -0.66132,0.17696 -0.326006,0.0558 -0.605438,0.0747 -0.270116,0.009 -0.419147,0.009 0,0.17697 0.04655,0.35395 0.05591,0.16766 0.158346,0.29805 0.102457,0.13042 0.270116,0.21424 0.167658,0.0836 0.409833,0.0836 0.242176,0 0.372576,-0.0747 0.139717,-0.0836 0.223547,-0.17699 0.08384,-0.10246 0.139714,-0.17697 0.06522,-0.0836 0.16766,-0.0836 0.04657,0 0.158345,0.0279 0.121086,0.0184 0.242175,0.0931 0.121088,0.0747 0.214231,0.20492 0.09315,0.13039 0.09315,0.33531 0,0.2701 -0.167659,0.46571 -0.167657,0.19562 -0.437776,0.3167 -0.260804,0.12108 -0.586807,0.17698 -0.326004,0.0558 -0.633379,0.0558 z m 0.176973,-4.07039 q -0.204918,0 -0.353946,0.12107 -0.139717,0.11177 -0.242178,0.28877 -0.09315,0.17695 -0.14903,0.39118 -0.04656,0.21425 -0.07453,0.40984 0.57749,-0.009 0.931438,-0.19559 0.363261,-0.18629 0.363261,-0.53093 0,-0.18628 -0.121085,-0.33534 -0.111776,-0.149 -0.353949,-0.149 z"
         style="font-style:normal;font-variant:normal;font-weight:normal;font-stretch:normal;font-size:9.45996284px;font-family:'Poetsen One';-inkscape-font-specification:'Poetsen One';letter-spacing:-0.19865924px;fill:#9f9f9f;stroke:none;stroke-width:0.13025609;stroke-linecap:butt;stroke-linejoin:round;stroke-miterlimit:4;stroke-dasharray:none;stroke-opacity:0.953125;paint-order:stroke markers fill;fill-opacity:1"
         id="path4583"
         inkscape:connector-curvature="0" />
      <path
         d="m 43.475528,290.22231 q -0.02793,0.35395 -0.06522,0.6986 -0.02793,0.34463 -0.05589,0.65201 -0.02793,0.30735 -0.04659,0.54953 -0.0095,0.24217 -0.0095,0.37258 0,0.24219 0.05589,0.326 0.05589,0.0747 0.186288,0.0747 0.102457,0 0.176973,-0.0373 0.07453,-0.0373 0.139716,-0.0836 0.06522,-0.0467 0.111773,-0.0836 0.05589,-0.0373 0.121088,-0.0373 0.06522,0 0.121088,0.0747 0.0559,0.0747 0.0559,0.34466 0,0.51228 -0.279435,0.81034 -0.279432,0.29806 -0.959382,0.29806 -0.670638,0 -0.99664,-0.30737 -0.316691,-0.31671 -0.316691,-0.95939 0,-0.13971 0.0095,-0.326 0.01862,-0.1956 0.04654,-0.50298 0.02793,-0.30738 0.06522,-0.75447 0.04657,-0.44708 0.09315,-1.10842 h -0.493662 q -0.07453,0 -0.09315,-0.0279 -0.0095,-0.0373 -0.0095,-0.10244 l 0.02793,-0.47506 q 0.0095,-0.12109 0.02793,-0.23286 0.02793,-0.12108 0.09315,-0.21422 0.07453,-0.0931 0.204917,-0.14902 0.130402,-0.0558 0.344634,-0.0558 0.06522,-0.16767 0.149028,-0.40054 0.08384,-0.23284 0.167661,-0.44707 0.08384,-0.22355 0.158346,-0.37257 0.08384,-0.14904 0.149029,-0.14904 h 0.270149 q 0.391203,0 0.540233,0.24216 0.149033,0.24219 0.149033,0.57752 0,0.18628 -0.02793,0.54954 h 0.978013 q 0.149029,0 0.149029,0.1304 l -0.03724,0.50297 q -0.01862,0.27945 -0.158344,0.4564 -0.130401,0.16766 -0.549552,0.16766 z"
         style="font-style:normal;font-variant:normal;font-weight:normal;font-stretch:normal;font-size:9.45996284px;font-family:'Poetsen One';-inkscape-font-specification:'Poetsen One';letter-spacing:-0.19865924px;fill:#9f9f9f;stroke:none;stroke-width:0.13025609;stroke-linecap:butt;stroke-linejoin:round;stroke-miterlimit:4;stroke-dasharray:none;stroke-opacity:0.953125;paint-order:stroke markers fill;fill-opacity:1"
         id="path4585"
         inkscape:connector-curvature="0" />
    </g>
  </g>
</svg>
