<?xml version="1.0" encoding="UTF-8" standalone="no"?>
<svg
   xmlns:dc="http://purl.org/dc/elements/1.1/"
   xmlns:cc="http://creativecommons.org/ns#"
   xmlns:rdf="http://www.w3.org/1999/02/22-rdf-syntax-ns#"
   xmlns:svg="http://www.w3.org/2000/svg"
   xmlns="http://www.w3.org/2000/svg"
   id="svg8"
   version="1.1"
   viewBox="0 0 79.374999 26.458334"
   height="100"
   width="300">
  <defs
     id="defs2" />
  <metadata
     id="metadata5">
    <rdf:RDF>
      <cc:Work
         rdf:about="">
        <dc:format>image/svg+xml</dc:format>
        <dc:type
           rdf:resource="http://purl.org/dc/dcmitype/StillImage" />
        <dc:title></dc:title>
      </cc:Work>
    </rdf:RDF>
  </metadata>
  <g
     transform="translate(0,-270.54165)"
     id="layer1">
    <path
       id="rect5042"
       d="m 4.0534988,275.83332 0.7816667,2.64583 H 73.850114 l -2.116667,10.58333 H 4.0534988 l -1.4390296,2.64584 H 73.585531 l 2.38125,-11.90625 0.79375,-3.96875 z"
       style="fill:#151515;fill-opacity:1;stroke:none;stroke-width:0.13229166;stroke-linecap:butt;stroke-linejoin:round;stroke-miterlimit:4;stroke-dasharray:none;stroke-opacity:0.953125;paint-order:stroke markers fill" />
    <g
       transform="translate(-1.8207186)"
       id="text5038"
       style="font-style:normal;font-weight:normal;font-size:11.3268261px;line-height:1.25;font-family:sans-serif;letter-spacing:0px;word-spacing:0px;fill:#151515;fill-opacity:1;stroke:none;stroke-width:0.28317067px;stroke-linecap:butt;stroke-linejoin:miter;stroke-opacity:1"
       aria-label="AMPTWEET">
      <path
         id="path5044"
         style="font-style:normal;font-variant:normal;font-weight:normal;font-stretch:normal;font-family:RundaW00-BlackItalic;-inkscape-font-specification:RundaW00-BlackItalic;fill:#151515;stroke-width:0.28317067px;fill-opacity:1"
         d="M 12.515859,287.70123 12.30065,286.04752 H 9.6614993 l -0.8381852,1.65371 H 6.614583 l 4.28154,-7.87214 h 2.639151 l 1.234624,7.87214 z m -0.758897,-5.72004 -1.21197,2.40128 h 1.563102 l -0.271844,-2.40128 z" />
      <path
         id="path5046"
         style="font-style:normal;font-variant:normal;font-weight:normal;font-stretch:normal;font-family:RundaW00-BlackItalic;-inkscape-font-specification:RundaW00-BlackItalic;fill:#151515;stroke-width:0.28317067px;fill-opacity:1"
         d="m 20.581444,285.25464 2.480575,-5.36892 h 3.06957 l -1.517795,7.81551 h -2.095462 l 0.985433,-5.1084 h -0.04531 l -2.367306,5.11973 h -2.084136 l -0.487054,-5.11973 h -0.04531 l -0.985434,5.1084 h -2.061483 l 1.506468,-7.81551 h 3.103551 z" />
      <path
         id="path5048"
         style="font-style:normal;font-variant:normal;font-weight:normal;font-stretch:normal;font-family:RundaW00-BlackItalic;-inkscape-font-specification:RundaW00-BlackItalic;fill:#151515;stroke-width:0.28317067px;fill-opacity:1"
         d="m 28.899937,283.98603 h 0.860839 q 0.271844,0 0.588995,-0.13592 0.328478,-0.13592 0.577668,-0.49838 0.24919,-0.36246 0.24919,-0.88349 0,-0.40777 -0.24919,-0.64563 -0.24919,-0.23786 -0.690937,-0.23786 h -0.872165 z m 4.428789,-1.83494 q 0,0.67961 -0.283171,1.33656 -0.271844,0.64563 -0.770224,1.14401 -0.49838,0.48706 -1.166663,0.77023 -0.668283,0.28317 -1.404526,0.28317 h -1.132683 l -0.396439,2.01617 h -2.084136 l 1.517795,-7.81551 h 3.228145 q 1.155336,0 1.823619,0.62298 0.668283,0.61165 0.668283,1.64239 z" />
      <path
         id="path5050"
         style="font-style:normal;font-variant:normal;font-weight:normal;font-stretch:normal;font-family:RundaW00-BlackItalic;-inkscape-font-specification:RundaW00-BlackItalic;fill:#151515;stroke-width:0.28317067px;fill-opacity:1"
         d="m 40.837348,279.88572 -0.339804,1.69903 h -2.288019 l -1.189317,6.11648 h -2.095463 l 1.189317,-6.11648 H 33.83737 l 0.339805,-1.69903 z" />
      <path
         id="path5052"
         style="font-style:normal;font-variant:normal;font-weight:normal;font-stretch:normal;font-family:RundaW00-BlackItalic;-inkscape-font-specification:RundaW00-BlackItalic;fill:#151515;stroke-width:0.28317067px;fill-opacity:1"
         d="m 48.539589,283.02325 1.336566,-3.13753 h 2.10679 l -3.49999,7.81551 h -2.310672 l -0.192556,-3.57927 0.113268,-1.21197 h -0.06796 l -0.407766,1.22329 -1.608409,3.56795 h -2.299346 l -0.49838,-7.81551 h 2.050155 l 0.07929,3.61326 -0.05663,1.74433 h 0.09061 l 0.758897,-1.99352 1.461161,-3.35274 h 1.970867 l 0.158576,3.33009 -0.02265,2.01617 h 0.101942 z" />
      <path
         id="path5054"
         style="font-style:normal;font-variant:normal;font-weight:normal;font-stretch:normal;font-family:RundaW00-BlackItalic;-inkscape-font-specification:RundaW00-BlackItalic;fill:#151515;stroke-width:0.28317067px;fill-opacity:1"
         d="m 57.527604,282.85335 -0.328478,1.6877 h -3.114878 l -0.28317,1.46116 h 3.703872 l -0.339805,1.69902 h -5.788008 l 1.517795,-7.81551 h 5.799335 l -0.339805,1.69903 H 54.65059 l -0.237864,1.2686 z" />
      <path
         id="path5056"
         style="font-style:normal;font-variant:normal;font-weight:normal;font-stretch:normal;font-family:RundaW00-BlackItalic;-inkscape-font-specification:RundaW00-BlackItalic;fill:#151515;stroke-width:0.28317067px;fill-opacity:1"
         d="m 64.407765,282.85335 -0.328478,1.6877 H 60.96441 l -0.283171,1.46116 h 3.703872 l -0.339805,1.69902 h -5.788008 l 1.517795,-7.81551 h 5.799335 l -0.339805,1.69903 h -3.703872 l -0.237863,1.2686 z" />
      <path
         id="path5058"
         style="font-style:normal;font-variant:normal;font-weight:normal;font-stretch:normal;font-family:RundaW00-BlackItalic;-inkscape-font-specification:RundaW00-BlackItalic;fill:#151515;stroke-width:0.28317067px;fill-opacity:1"
         d="m 72.760417,279.88572 -0.339804,1.69903 h -2.288019 l -1.189317,6.11648 h -2.095463 l 1.189317,-6.11648 h -2.276692 l 0.339805,-1.69903 z" />
    </g>
  </g>
</svg>
